<svg viewBox="65.1 102.4 367.4 295.19999999999993" xmlns="http://www.w3.org/2000/svg" width="2500" height="1594"><linearGradient id="a" gradientTransform="scale(115.9464 -115.9464) rotate(30.578 8.401 .224)" gradientUnits="userSpaceOnUse" x1="1.511" x2="1.657" y1="1.192" y2="1.192"><stop offset="0" stop-color="#909ca9"/><stop offset="1" stop-color="#ededee"/></linearGradient><linearGradient id="b" gradientTransform="matrix(80.3196 0 0 -80.3196 150.725 -619.331)" gradientUnits="userSpaceOnUse" x1=".981" x2="1.127" y1="-9.224" y2="-9.224"><stop offset="0" stop-color="#939fab"/><stop offset="1" stop-color="#dcdee1"/></linearGradient><radialGradient id="c" cx="1.935" cy="2.23" gradientTransform="matrix(-102.4055 -15.3824 -31.1105 204.8109 556.169 -251.717)" gradientUnits="userSpaceOnUse" r=".146"><stop offset="0" stop-color="#ee352c"/><stop offset="1" stop-color="#a91d22"/></radialGradient><path d="M315 196.4l-40.3 13.2-35.1 15.5-9.8 2.6c-2.5 2.4-5.1 4.8-8 7.2-3.1 2.7-6 5.1-8.2 6.9-2.5 2-6.1 5.6-8 7.9-2.8 3.5-5 7.2-5.9 10-1.7 5.1-.9 10.3 2.4 15.1 4.1 6.1 12.4 12.3 22 16.5 4.9 2.2 13.2 4.9 19.4 6.5 10.3 2.6 30.3 5.5 41.3 5.9 2.2.1 5.2.1 5.3 0 .2-.2 2-3.4 3.9-7.5 6.8-13.8 11.6-26.8 14.3-37.8 1.6-6.7 2.8-15.6 3.7-26.2.2-3 .3-12.9.1-16.2-.3-5.5-.8-9.9-1.5-14.3-.1-.6-.2-1.2-.1-1.2.1-.1.5-.2 5.5-1.6zm-9.2 5.4c.4 0 1.3 9.4 1.6 15.3.1 1.2 0 2.1 0 2.1-.2 0-5.1-2.9-8.7-5.1-3-1.9-8.8-5.8-9.7-6.5-.3-.2-.3-.2 2.2-1.1 4.2-1.5 14.2-4.7 14.6-4.7zm-20.6 6.8c.3 0 1 .4 2.7 1.4 6.3 3.9 14.8 8.7 18.5 10.3 1.1.5 1.2.3-1.3 2.1-5.5 3.8-12.5 7.5-20.9 11.2-1.5.7-2.7 1.2-2.8 1.2s.1-.8.4-1.7c2-7.6 3.2-15.3 3.3-21.4-.2-3.1-.2-3.1.1-3.1zm-4.2 1.6c.2.2.1 7-.2 8.9-.5 4.4-1.4 8.6-2.8 13.3-.3 1.1-.6 2.1-.7 2.1-.1.2-4.3-3.9-5.7-5.5-2.4-2.7-4.2-5.5-5.6-8.2-.7-1.4-1.8-4.1-1.7-4.1.5-.4 16.6-6.6 16.7-6.5zm-19.9 7.8c.2.1.4.6.5 1.1 1 2.7 3.2 6.6 5.1 9 2.1 2.7 4.8 5.7 7 7.6.7.6 1.4 1.2 1.5 1.3.2.2.2.2-4.7 2-5.8 2.2-12 4.4-19.2 6.7-1.7.6-3.4 1.1-5.1 1.7-.3.1-.2-.1.6-1.3 3.6-5.6 9-16.5 12-24.3.5-1.3 1-2.7 1.1-3 .1-.4.3-.6.7-.8.2.1.4 0 .5 0zm-6.1 2.5c.1.1-1.5 3.3-3 6.3-3 5.8-6.2 11.4-10.5 18.3-.7 1.2-1.4 2.3-1.5 2.4-.2.2-.2.2-.7-.8-1-2-1.9-4.7-2.3-7.1-.5-2.4-.4-6.5.2-9.1.4-1.9.4-1.9 1.3-2.3 3.7-1.9 16.3-7.8 16.5-7.7zm52.5 2.2v1.3c0 6.8-.7 16.1-1.8 22.9-.2 1.2-.3 2.2-.4 2.2 0 0-.9-.2-1.9-.5-4.6-1.4-9.5-3.5-14-6-3-1.6-7.3-4.3-7.1-4.4 0 0 1.3-.7 2.8-1.5 6-3.1 11.7-6.5 16.7-9.8 1.9-1.2 4.7-3.3 5.3-3.8zm-75.5 9c.1 0 .1.2-.1 1.3-.1.8-.3 2.3-.3 3.3-.2 4.4.5 7.7 2.7 12.2.6 1.2 1.1 2.3 1.1 2.3-.2.2-20.4 6.1-26.7 7.8-1.9.5-3.5 1-3.7 1-.2.1-.2 0-.2-.5.7-4.5 4.1-10.3 8.9-15.3 3.2-3.3 5.7-5.2 10-7.7 3.1-1.6 7.8-4.3 8.3-4.4-.1 0-.1 0 0 0zm47.5 8.5s.8.4 1.6.9c6.5 3.8 15.6 7.3 23.3 9.1l.7.2-1 .5c-4.1 2.3-17.4 7.8-31 12.9-2 .7-3.9 1.5-4.3 1.6-.4.2-.7.2-.7.2s.5-1.1 1.2-2.4c3.8-7.1 7.6-15.8 9.6-21.8.4-.7.6-1.2.6-1.2zm-4.8 1.6s-.2.7-.5 1.4c-2.7 6.4-6.1 13.4-10.6 21.3-1.1 2-2.1 3.6-2.1 3.6s-.9-.5-2-1.2c-6.5-4-12.2-8.8-15.9-13.6l-.5-.7 2.8-.8c9.9-2.7 18.4-5.6 26.8-9.2.9-.4 1.9-.8 2-.8zm30.1 10.5c0 .7-1.5 7-2.8 11.5-1.1 3.8-2 6.8-3.7 12.1-.7 2.3-1.4 4.2-1.4 4.2s-.2 0-.4-.1c-9-1.6-17.2-3.9-24.8-7-2.1-.9-5.2-2.2-5.4-2.4-.1-.1 1.8-.9 4.1-1.9 13.9-6.1 28.2-12.9 33.2-15.9.6-.3 1.1-.5 1.2-.5zm-69.5 2.4c.1.1-3.8 5.6-9.2 13.2-1.9 2.7-4.1 5.8-4.9 6.9-.8 1.2-2.1 3-2.8 4.1l-1.3 2-1.4-1.2c-1.6-1.3-4.4-4.2-5.7-5.8-2.6-3.3-4.4-6.7-5.1-9.8-.3-1.5-.3-2.2 0-2.3.5-.1 8.6-2 16.2-3.8 4.2-1 9.1-2.1 10.9-2.6 1.8-.4 3.2-.7 3.3-.7zm3.9 1.5l1 1.1c4.4 4.9 8.9 8.5 14.3 11.7 1 .5 1.7 1 1.6 1.1-.2.2-18.8 6.8-27.5 9.7-4.8 1.7-8.8 3.1-8.9 3.1l-.6-.4-.5-.4.9-1.3c2.9-4.1 6.5-8.7 14.3-18.1zm24.3 17.4s1.4.5 3 1.1c4 1.5 7.1 2.4 11.3 3.5 5.2 1.3 12.7 2.6 17.1 3 .7.1 1 .1.9.2-.2.1-4.7 1.6-8 2.7-5.2 1.6-21.2 6.4-34.3 10.1-2.4.7-4.5 1.3-4.6 1.3-.3.1-1.3-.2-1.3-.3s.7-1 1.6-2c4.4-5.2 8.7-11.1 12.4-16.6 1-1.8 1.9-3 1.9-3zm-5.4.1s-2.1 3.5-5.9 9.5c-1.6 2.5-3.4 5.4-4.1 6.4-.6 1-1.5 2.5-2 3.4l-.9 1.6-.5-.1c-1.1-.3-8.8-3-10.8-3.8-2.5-1-5.1-2.2-7.1-3.3-2.4-1.3-5.5-3.3-5.2-3.3.1 0 4.2-1.2 9.3-2.5 13.3-3.6 20.7-5.7 25.6-7.3.8-.4 1.6-.6 1.6-.6zm37.9 8.9c.2.3-4.8 14-6.6 18.3-.4 1-.5 1.2-.8 1.2-.5 0-7.7-1-12-1.7-7.6-1.2-20.3-3.4-23.5-4.1l-.7-.2 4.5-1c9.8-2.2 14.4-3.4 19.2-4.8 6-1.8 11.9-4.1 17.9-6.9 1-.4 1.8-.8 2-.8z" fill="url(#a)"/><path d="M273.4 102.5c-.7-.1-11.5 3.8-18.5 6.6-9.4 3.8-16.7 7.5-21.2 10.7-1.7 1.2-3.8 3.3-4.1 4.1-.1.3-.2.7-.2 1l4.1 3.9 9.7 3.1 23.1 4.1 26.4 4.5.3-2.3h-.2l-3.5-.5-.7-1.2c-3.6-6.3-7.6-14.2-9.9-19.5-1.8-4.1-3.5-8.9-4.4-12.3-.5-2.1-.6-2.2-.9-2.2zm-.5 1.5c.1 0 .2.9.3 1.9.5 4.3 1.5 8.4 3 12.8 1.1 3.4 1.1 3.2-.2 2.8-3.1-.9-17-3.3-27.1-4.7-1.6-.2-3-.4-3-.5-.1-.1 7.3-4 10.5-5.5 4.2-1.9 15.7-6.6 16.5-6.8zm-29.4 13.7l1.2.4c6.5 2.2 22.7 5.3 31.7 6 1 .1 1.9.2 1.9.2s-.8.5-1.9 1c-4.3 2.2-9.1 4.8-12.4 6.9-1 .6-1.9 1.1-2 1.1s-.8-.1-1.4-.2l-1.2-.2-3-3c-5.4-5.2-9.6-9.2-11.2-10.8zm-1.2.9l4.3 5.4c2.3 3 4.7 5.8 5.2 6.5.5.6.9 1.2.9 1.2-.1.1-6.2-1.1-9.4-1.8-3.3-.8-4.7-1.1-6.7-1.8l-1.7-.5v-.4c0-2 2.6-5.1 7-8.2zm36.5 7.3c.1 0 .3.3.6 1.1 1 2.3 4.3 8.4 5.1 9.6.2.4.7.4-3.6-.3-10.3-1.7-13.6-2.2-13.6-2.3 0 0 .3-.2.7-.5 3.2-1.8 6.4-4 9.3-6.4.7-.6 1.3-1.1 1.5-1.2-.1 0 0 0 0 0z" fill="url(#b)"/><path d="M229.8 123.4s-.7 1.1 0 2.7c.4 1 1.6 2.2 2.9 3.4 0 0 13.6 13.2 15.2 15.1 7.5 8.7 10.8 17.2 11.1 28.9.2 7.6-1.2 14.2-4.8 21.9-6.3 13.8-19.7 29.1-40.3 46l3-1c1.9-1.5 4.6-3 10.8-6.4 14.4-7.9 30.5-15.1 50.3-22.5 28.5-10.7 75.4-23.3 102.1-27.4l2.8-.4-.4-.7c-2.4-3.8-4.1-6.1-6.1-8.6-5.8-7.3-12.9-13.1-21.6-18-11.9-6.7-27.4-11.9-47-15.8-3.7-.7-11.8-2.1-18.4-3.1-14-2.2-23-3.7-32.9-5.4-3.6-.6-8.9-1.5-12.4-2.3-1.8-.4-5.3-1.2-8.1-2.2-2.4-.7-5.5-1.6-6.2-4.2zm7.9 7.7s.5.2 1.2.4c1.2.4 2.7.9 4.4 1.3 1.3.4 2.7.7 4 1.1 1.8.5 3.4.9 3.4.9.2.2 3.3 10.1 4.3 13.8.4 1.4.7 2.7.7 2.7s-.4-.5-.8-1.2c-3.6-6.3-9.2-12.6-15.7-17.8-.9-.7-1.5-1.2-1.5-1.2zm15 4.1c.2 0 .8.1 1.6.3 5.2 1.2 14.5 2.9 20.4 3.9 1 .2 1.8.3 1.8.4s-.4.3-.8.5c-1 .5-5.1 2.9-6.4 3.8-3.4 2.3-6.4 4.7-8.6 6.9l-1.6 1.6s-.2-.5-.3-1.2c-1.1-4.2-3.4-10.5-5.5-14.9-.4-.6-.7-1.3-.6-1.3-.1 0-.1 0 0 0zm26.3 5c.2.1.5 1.1 1.1 3.4 1.1 4.4 1.6 9.4 1.5 14-.1 1.3-.1 2.5-.2 2.6l-.1.3-1.6-.5c-3.3-1-8.6-2.6-13.1-3.9-2.6-.7-4.7-1.3-4.7-1.4 0-.2 3.8-4 5.4-5.4 3.1-2.7 11.5-9.2 11.7-9.1zm2.1.3c.1-.1 12.6 2.1 18.3 3.2 4.2.8 10.4 2.1 10.8 2.3.2.1-.5.4-2.5 1.3-8 3.6-14 6.9-20 10.8-1.6 1-2.9 1.9-2.9 1.9s-.1-.9-.1-1.9c0-5.8-1.2-11.6-3.3-16.6-.1-.5-.3-.9-.3-1zm32.4 6.4c.1.1-.3 2.6-.7 4-1.1 4.5-4.1 11.3-7.7 17.6-.6 1.1-1.2 2-1.3 2.1-.1 0-.9-.4-1.8-1-3.5-2.1-7.6-4-11.9-5.8-1.2-.5-2.3-.9-2.3-1-.2-.2 9.6-6.7 14.8-9.8 4.1-2.5 10.8-6.2 10.9-6.1zm2.3.4c.3 0 5.8 1.5 8.7 2.4 7.2 2.1 15.4 5.1 20.7 7.6l2.2 1-1.6.4c-13.1 3-24.3 6.5-35.1 10.9-.9.4-1.7.7-1.7.7-.1 0 .2-.7.6-1.6 3.3-6.9 5.4-14.1 5.9-20.3.2-.6.3-1.1.3-1.1zM260.6 160c.1-.1 4.3.9 6.6 1.6 3.5 1 10.8 3.4 10.8 3.6 0 0-.8.7-1.8 1.6-4 3.3-7.8 6.8-12.4 11.3-1.4 1.3-2.5 2.4-2.6 2.4s-.1-.2-.1-.4c.7-5.1.5-11.7-.4-18.4 0-1-.1-1.7-.1-1.7zm89 .1c.1.1-2 3.2-3.2 5-1.8 2.6-4.5 6.1-10.6 13.7-3.2 4-6.8 8.6-8 10.1s-2.2 2.8-2.3 2.8c0 0-.4-.5-.9-1.2-3.4-5.1-7.5-9.6-12.3-13.6-.9-.8-1.9-1.6-2.3-1.8-.3-.2-.6-.5-.6-.5 0-.1 5.2-2.3 9.1-3.9 6.9-2.8 16.3-6.2 23.3-8.3 3.8-1.3 7.8-2.4 7.8-2.3zm2.4.6c.1 0 .9.3 1.7.9 7.4 4.2 14.7 9.7 20.4 15.3 1.6 1.6 5.6 5.7 5.5 5.8 0 0-1.4.1-3 .2-12.8 1-29.2 3.7-45 7.5-1.1.2-2 .5-2.1.5s1.1-1.2 2.6-2.6c9.3-8.9 13.5-14.6 18.5-24.6.7-1.7 1.3-2.9 1.4-3-.1 0-.1 0 0 0zm-67.9 6.9c.4.1 4.4 2 7.4 3.4 2.7 1.4 6.9 3.6 7.1 3.7 0 0-1.4.8-3.2 1.7-5.7 2.9-10.6 5.6-15.8 8.7-1.5.9-2.7 1.6-2.7 1.6-.1 0-.1-.1.7-1.6 2.7-5 4.9-11 6.2-16.8.1-.4.2-.7.3-.7zm-3.9.8c.1.1-.9 3.8-1.6 5.9-1.2 3.9-3.4 8.7-5.4 12.4-.5.9-1.2 2.1-1.6 2.8l-.8 1.2-1.7-1.6c-2-1.9-3.6-3.1-5.7-4.2-.8-.4-1.5-.8-1.5-.9 0-.2 5.2-5 9.2-8.4 2.9-2.5 9-7.3 9.1-7.2zm24.2 9.9l1.5 1c3.4 2.2 7.4 5.2 10.5 7.8 1.7 1.4 5.1 4.4 5.8 5.2l.4.4-2.5.7c-14 3.9-24.7 7.3-37.3 11.9-1.4.5-2.6.9-2.7.9-.2 0-.3.2 2.8-2.7 8-7.4 15.2-15.6 20.5-23.5zm-6.4 1.6c.1.1-4.1 5.9-6.6 9.3-3 4-8.3 10.6-11.9 14.9-1.5 1.8-2.8 3.3-2.9 3.3s-.1-.4-.1-1.1c0-3.7-.9-7.6-2.6-11-.7-1.4-.8-1.7-.7-1.9.6-.5 9.4-5.6 15.1-8.6 3.7-2 9.6-5 9.7-4.9zm-38.5 9.4c.1 0 .8.4 1.6.8 1.9 1.1 3.7 2.3 5.2 3.5.1.1-.7.7-1.8 1.5-2.9 2.1-7.3 5.4-9.8 7.4-2.7 2.1-2.8 2.2-2.5 1.7 2-3.1 3-4.8 4.1-7 .9-2 1.9-4.3 2.6-6.4.2-.8.5-1.5.6-1.5zm10.3 8.1c.2 0 .3.2 1.2 1.5 1.7 2.6 3.1 6.1 3.4 8.9l.1.6-4.2 1.6c-7.5 2.9-14.4 5.8-19 7.9-1.3.6-3.6 1.7-5.1 2.4-1.5.8-2.7 1.3-2.7 1.3s.9-.7 2.1-1.6c9.1-6.6 17-13.9 22.9-21.1.6-.8 1.2-1.5 1.3-1.5zm-4.7 1.1c.1.1-3.4 4.1-5.7 6.5-5.9 6-11.7 10.7-18.9 15.3-.9.6-1.7 1.1-1.8 1.2-.2.1.1-.2 3.2-3.6 2-2.2 3.5-4 5.3-6.2 1.2-1.5 1.4-1.7 3-2.9 4.4-3.4 14.7-10.4 14.9-10.3z" fill="url(#c)"/><path d="M133.1 324.7c-.6 0-1.1.1-1.7.1-11.4.6-19 5.6-23.5 15.4-3.8 8.8-3.4 20.4 0 29.2 4 8.7 10.5 13.3 21.3 15 2.3.4 3.8 1.6 8.3 6.8l5.5 6.4h9.9l-6.6-6.6c-3.6-3.6-6.6-6.8-6.6-7.1s1.4-.9 3.1-1.4c5.6-1.7 10.2-6 13.4-12.6 2.6-5.3 3-6.9 3.4-13.5 1-19.6-9.3-31.8-26.5-31.7zm8.7 51.2c-4.8 2.3-11.8 2.8-16.4 1.1-4.7-1.7-9.3-6.6-11.4-12.2-2.3-6.1-2-17.3.7-22.3 4.2-8 9.8-11.7 17.9-11.7 12 0 18.9 7.4 19.8 21.2.7 11.6-3.2 20.3-10.6 23.9zm171.1-34.5c-4.2 0-7.3 1.7-9.5 5l-1.7 2.6v-6.8h-7.2v40.9h7.2V370c0-12 .1-13.4 1.8-16.6 2.3-4.5 6.3-6.7 10.1-5.7l2.6.7v-7.1zm-42.2-.4c-1.4 0-2.9.2-4.4.5-9.6 2.5-15 11.7-14.7 21.2 0 7.9 1.5 11.9 5.4 16.1 7.8 6.4 14.9 6.9 24.5 3.5 1.6-.7 3.4-1.5 3.4-1.5v-6.4l-3.4 1.8c-7.7 3.4-13.6 3.4-18.3-.6-3-3-4.3-6.7-4.9-10.8h29v-5.5c0-11.3-6.8-18.4-16.6-18.3zM259 359s1.1-7 5-9.8c1.9-1.3 4.1-2 6.3-2s4.3.7 6.1 2.1c3.6 2.8 4.3 9.7 4.3 9.7zm-173.4-7.4c-7.8-4.7-11.3-8.1-10.8-12.1 1.2-11.1 14.9-9.6 22.5-5.4l.1-7.5s-4.2-1.8-10.2-1.9c-9.2-.1-15.2 2.9-18 9.1-4.1 9.1-.5 16 12.7 23.6 7.4 4.3 10.7 8 10.7 12.1 0 8.4-10.1 11.3-20.6 6.1-2.2-1.1-4-2-4.1-2-.4 2.4-.2 8.1-.2 8.1s3.2 1.3 8 2.3c12 2.4 22.8-3.2 23.9-12.3.8-8.6-2.3-13.1-14-20.1zm291-10.6c-1.4 0-2.9.2-4.4.5-9.6 2.5-15 11.7-14.7 21.2 0 7.9 1.5 11.9 5.4 16 7.8 6.4 14.9 7 24.6 3.5 1.6-.7 3.4-1.5 3.4-1.5v-6.4l-3.4 1.8c-7.8 3.4-13.6 3.4-18.3-.6-3-3-4.3-6.6-4.9-10.8h28.9v-5.5c0-11.3-6.8-18.4-16.6-18.2zm-11.8 17.9s1.1-7 5-9.8c1.9-1.4 4.1-2 6.2-2s4.3.7 6.1 2.1c3.6 2.8 4.3 9.7 4.3 9.7zM233 351.7c-7.8-4.7-11.2-8.1-10.8-12.1 1.2-11.1 14.9-9.6 22.5-5.4l.1-7.5s-4.2-1.8-10.2-1.9c-9.2-.1-15.2 2.9-18 9.1-4.1 9.1-.4 16 12.7 23.6 7.4 4.3 10.6 8 10.6 12 0 8.4-10.1 11.4-20.6 6.1-2.1-1.1-4-2-4.1-2-.4 2.4-.2 8.1-.2 8.1s3.2 1.3 8 2.3c12 2.4 22.8-3.2 23.9-12.3.9-8.5-2.2-13-13.9-20zm185.8-10.4c-4.2 0-7.4 1.7-9.5 5l-1.7 2.6v-6.8h-7.2V383h7.2v-13c0-12 .1-13.4 1.8-16.6 2.3-4.5 6.3-6.7 10.1-5.6l2.6.7v-7.1zm-243 10.2v-26.1h-7.2v57.7h30.5v-6.8h-23.2zm167.7 8.1l-6 15.5-5.7-15.6-5.8-17.3h-7.4c4.8 13.6 10 27.5 15.3 40.9 2.3.1 4.6 0 6.9 0l8.1-20.3 8.2-20.7H350c-.1.1-3.2 8.3-6.5 17.5zm-150.9-49.9c1.2 0 2.1-.4 2.9-1.2s1.2-1.7 1.2-2.9-.4-2.1-1.2-2.9c-.8-.7-1.7-1.1-2.9-1.1s-2.2.4-2.9 1.2c-.8.8-1.2 1.8-1.2 2.9 0 1.2.4 2.2 1.2 2.9.7.7 1.7 1.1 2.9 1.1zM190 303c.7-.7 1.5-1 2.6-1 1 0 1.9.3 2.6 1s1.1 1.5 1.1 2.6c0 1-.4 1.9-1.1 2.6s-1.6 1-2.6 1-1.9-.3-2.6-1-1.1-1.6-1.1-2.6c.1-1 .4-1.9 1.1-2.6zm1.7 3h.5c.3 0 .7.3.9.9l.6 1.3h.9l-.7-1.4c-.3-.6-.6-.9-.9-1 .4-.1.7-.2 1-.5.2-.2.3-.6.3-.9 0-.4-.1-.7-.4-1s-.8-.4-1.5-.4h-1.5v5.2h.7zm0-2.4h.7c.5 0 .8.1 1 .2s.2.3.2.7c0 .6-.4.9-1.1.9h-.8zM72 305.5c0-1.8-.1-3.2-.1-4 .2.9.4 1.6.6 2.1l7 15.5h1.2l7-15.7c.2-.4.4-1.1.6-2h.1c-.1 1.6-.2 2.9-.2 4v13.7h2.4v-20.4h-3L81.1 313c-.2.6-.6 1.4-1 2.5H80c-.1-.6-.5-1.4-.9-2.4l-6.3-14.3h-3.2v20.4h2.3zm23.7.1h2.1v12.7h-2.1zm1-4.7c.4 0 .8-.1 1.1-.4s.5-.6.5-1.1c0-.4-.1-.8-.5-1.1-.3-.3-.7-.4-1.1-.4s-.8.1-1.1.4-.5.7-.5 1.1c0 .5.1.8.5 1.1.3.3.7.4 1.1.4zm15.7 17.6v-2.2c-1.1.8-2.3 1.3-3.6 1.3-1.5 0-2.7-.5-3.6-1.5s-1.4-2.3-1.4-4c0-1.8.5-3.2 1.4-4.2s2.2-1.5 3.6-1.5c1.2 0 2.4.4 3.5 1.1V305c-1-.5-2.1-.7-3.4-.7-2.3 0-4.2.7-5.5 2.2-1.3 1.4-2 3.4-2 5.8 0 2.1.6 3.9 1.9 5.2 1.3 1.4 3 2.1 5 2.1 1.7-.1 3-.4 4.1-1.1zm5.9-6.7c0-1.7.4-3 1.1-4 .7-.8 1.4-1.3 2.4-1.3.8 0 1.4.1 1.8.5v-2.4c-.3-.1-.8-.2-1.4-.2-.8 0-1.6.3-2.2.8-.7.6-1.3 1.4-1.6 2.5h-.1v-3H116v14.6h2.3zm13.4 7.7c2.2 0 4-.7 5.3-2.1s2-3.3 2-5.6c0-2.4-.6-4.2-1.8-5.6s-2.9-2-5.1-2-4 .7-5.3 1.9c-1.4 1.4-2.1 3.4-2.1 5.9 0 2.2.6 4 1.9 5.4 1.2 1.4 2.9 2.1 5.1 2.1zm-3.3-11.8c.9-.9 2.1-1.4 3.5-1.4 1.5 0 2.6.5 3.5 1.4.8 1 1.3 2.4 1.3 4.2s-.4 3.2-1.2 4.1c-.8 1-2 1.5-3.5 1.5s-2.7-.5-3.6-1.5-1.3-2.3-1.3-4.1c-.1-1.8.3-3.2 1.3-4.2zm20.7 10.6c.9-.8 1.4-1.8 1.4-3 0-1.1-.4-2-1.1-2.7-.6-.6-1.4-1.1-2.7-1.6-1.1-.5-1.8-.9-2.2-1.2-.4-.4-.6-.8-.6-1.5 0-.6.2-1.1.7-1.4.5-.4 1.1-.6 1.9-.6 1.3 0 2.3.3 3.3 1V305c-.9-.5-2-.7-3.1-.7-1.5 0-2.8.4-3.7 1.2-1 .8-1.4 1.8-1.4 3 0 1.1.3 2 .9 2.6.5.6 1.4 1.1 2.6 1.6s2 1 2.4 1.4.6.8.6 1.4c0 1.4-.9 2.1-2.8 2.1-1.4 0-2.7-.5-3.8-1.4v2.5c1 .6 2.2.9 3.6.9 1.7-.1 3.1-.5 4-1.3zm11.1-14c-2.2 0-4 .7-5.3 1.9-1.4 1.4-2.1 3.4-2.1 5.9 0 2.2.6 4 1.9 5.4s3 2.1 5.2 2.1 4-.7 5.3-2.1 2-3.3 2-5.6c0-2.4-.6-4.2-1.8-5.6-1.3-1.4-3-2-5.2-2zm4.6 7.6c0 1.8-.4 3.2-1.2 4.1-.8 1-2 1.5-3.5 1.5s-2.7-.5-3.6-1.5-1.3-2.3-1.3-4.1c0-1.9.5-3.3 1.4-4.3.9-.9 2.1-1.4 3.5-1.4s2.6.5 3.4 1.4c.9 1 1.3 2.4 1.3 4.3zm6.3 7.3h2.3v-12.6h3.4v-2h-3.4v-2.2c0-2 .8-3.1 2.4-3.1.6 0 1.1.1 1.5.4v-2.1c-.4-.2-1-.2-1.7-.2-1.3 0-2.3.4-3.1 1.2-1 .9-1.5 2.1-1.5 3.8v2.4h-2.5v2h2.5zm9.6-4c0 2.8 1.3 4.3 3.8 4.3.9 0 1.6-.1 2.2-.5v-2c-.4.3-.9.5-1.5.5-.8 0-1.3-.2-1.7-.6-.3-.4-.5-1.1-.5-2.1v-8.2h3.7v-2H183v-4.3c-.8.3-1.6.5-2.3.7v3.5h-2.5v2h2.5zm250.5 26.9c-.8-.7-1.7-1.1-2.9-1.1s-2.2.4-2.9 1.2c-.8.8-1.2 1.8-1.2 2.9 0 1.2.4 2.1 1.2 2.9.8.7 1.8 1.1 2.9 1.1 1.2 0 2.1-.4 2.9-1.2s1.2-1.7 1.2-2.9c.1-1.2-.4-2.2-1.2-2.9zm-.3 5.5c-.7.7-1.5 1-2.6 1-1 0-1.9-.3-2.6-1s-1.1-1.6-1.1-2.6.3-1.9 1-2.6 1.5-1 2.6-1c1 0 1.9.3 2.6 1s1.1 1.6 1.1 2.6-.3 1.9-1 2.6zm-2.1-2.4c.4-.1.7-.3 1-.5.2-.2.3-.6.3-.9 0-.4-.1-.7-.4-1s-.8-.4-1.5-.4h-1.5v5.2h.7v-2.2h.5c.3 0 .6.3.9.9l.6 1.3h.9l-.7-1.4c-.3-.6-.6-.9-.8-1zm-.5-.5h-.8V343h.7c.5 0 .8.1 1 .2s.2.3.2.7c-.1.6-.4.8-1.1.8zM298 304h.7v-5.2h1.7v-.7h-4.1v.7h1.7zm3.9-3.9v-1.2c0 .3.1.5.2.6l2 4.5h.3l2-4.5c.1-.1.1-.3.2-.6v5.1h.7v-5.9h-.8l-1.8 4.1c0 .1-.2.4-.3.8h-.1c0-.2-.1-.4-.3-.7l-1.8-4.1h-.9v5.9h.7z" fill="#231f1f"/></svg>