<svg width="250" height="250" viewBox="0 0 250 250" fill="none" xmlns="http://www.w3.org/2000/svg">
<path d="M40.183 159.712C60.2292 159.712 76.4792 143.509 76.4792 123.522C76.4792 103.534 60.2292 87.3312 40.183 87.3312C20.1371 87.3312 3.88672 103.534 3.88672 123.522C3.88672 143.509 20.1371 159.712 40.183 159.712Z" fill="#7856FF"/>
<path d="M148.769 148.771C162.952 148.771 174.449 137.309 174.449 123.17C174.449 109.031 162.952 97.5693 148.769 97.5693C134.587 97.5693 123.09 109.031 123.09 123.17C123.09 137.309 134.587 148.771 148.769 148.771Z" fill="#7856FF"/>
<path d="M233.473 135.867C240.389 135.867 245.995 130.277 245.995 123.381C245.995 116.485 240.389 110.895 233.473 110.895C226.556 110.895 220.949 116.485 220.949 123.381C220.949 130.277 226.556 135.867 233.473 135.867Z" fill="#7856FF"/>
</svg>
