<svg width="1693" height="450" viewBox="0 0 1693 450" fill="none" xmlns="http://www.w3.org/2000/svg">
<path d="M85.9209 150.609C85.9209 82.4514 141.362 27 209.499 27C277.64 27 333.078 82.4514 333.078 150.609C333.078 163.778 329.253 184.573 320.853 199.125L234.709 348.37L218.957 321.078L297.22 185.478C302.787 175.838 305.789 160.322 305.789 150.612C305.789 97.5026 262.592 54.3016 209.499 54.3016C156.406 54.3016 113.212 97.4993 113.212 150.609C113.212 154.118 113.592 158.153 114.27 162.274H109.957C102.528 162.274 94.7133 163.385 87.1247 165.181C86.3499 160.059 85.9209 155.033 85.9209 150.609ZM185.423 406.422C166.668 417.263 145.392 422.98 123.731 423C79.6692 422.993 38.6172 399.307 16.6097 361.179C0.102484 332.583 -4.27706 299.275 4.26255 267.383C12.8055 235.491 33.2567 208.831 61.8418 192.32C73.2412 185.737 93.157 178.656 109.957 178.652H282.252L266.497 205.951H109.96C98.8335 205.951 83.8958 211.113 75.4925 215.963C53.2124 228.825 37.2837 249.597 30.6263 274.444C23.9688 299.291 27.384 325.246 40.25 347.531C57.3957 377.241 89.386 395.702 123.737 395.702C140.607 395.679 157.174 391.223 171.779 382.779C174.815 381.026 178.111 378.681 181.35 376.03L183.501 379.766C187.216 386.199 192.087 392.422 197.441 398.1C193.394 401.33 189.284 404.194 185.423 406.422ZM402.389 361.172C380.381 399.307 339.333 423 295.264 423C273.605 422.972 252.332 417.255 233.575 406.422C222.176 399.836 206.077 386.126 197.681 371.573L111.536 222.326H143.048L209.499 337.456L221.318 357.926C223.313 361.375 226.15 365.034 229.768 368.783C235.078 374.304 241.606 379.533 247.223 382.783C261.827 391.227 278.395 395.684 295.264 395.705H295.271C329.613 395.705 361.606 377.241 378.752 347.528C391.615 325.252 395.03 299.298 388.372 274.448C381.715 249.597 365.783 228.828 343.509 215.963C340.473 214.21 336.792 212.527 332.881 211.047L335.033 207.314C338.747 200.875 341.7 193.547 343.938 186.07C348.77 187.963 353.326 190.111 357.157 192.32C385.745 208.831 406.193 235.484 414.736 267.383C423.279 299.275 418.896 332.583 402.389 361.172Z" fill="#244CEC"/>
<path d="M737.1 161.4C757.5 161.4 773.9 167.7 786.3 180.3C798.9 192.7 805.2 210.1 805.2 232.5V330H763.2V238.2C763.2 225.2 759.9 215.3 753.3 208.5C746.7 201.5 737.7 198 726.3 198C714.9 198 705.8 201.5 699 208.5C692.4 215.3 689.1 225.2 689.1 238.2V330H647.1V238.2C647.1 225.2 643.8 215.3 637.2 208.5C630.6 201.5 621.6 198 610.2 198C598.6 198 589.4 201.5 582.6 208.5C576 215.3 572.7 225.2 572.7 238.2V330H530.7V163.8H572.7V183.9C578.1 176.9 585 171.4 593.4 167.4C602 163.4 611.4 161.4 621.6 161.4C634.6 161.4 646.2 164.2 656.4 169.8C666.6 175.2 674.5 183 680.1 193.2C685.5 183.6 693.3 175.9 703.5 170.1C713.9 164.3 725.1 161.4 737.1 161.4ZM918.855 332.7C902.855 332.7 888.455 329.2 875.655 322.2C862.855 315 852.755 304.9 845.355 291.9C838.155 278.9 834.555 263.9 834.555 246.9C834.555 229.9 838.255 214.9 845.655 201.9C853.255 188.9 863.555 178.9 876.555 171.9C889.555 164.7 904.055 161.1 920.055 161.1C936.055 161.1 950.555 164.7 963.555 171.9C976.555 178.9 986.755 188.9 994.155 201.9C1001.76 214.9 1005.56 229.9 1005.56 246.9C1005.56 263.9 1001.66 278.9 993.855 291.9C986.255 304.9 975.855 315 962.655 322.2C949.655 329.2 935.055 332.7 918.855 332.7ZM918.855 296.1C926.455 296.1 933.555 294.3 940.155 290.7C946.955 286.9 952.355 281.3 956.355 273.9C960.355 266.5 962.355 257.5 962.355 246.9C962.355 231.1 958.155 219 949.755 210.6C941.555 202 931.455 197.7 919.455 197.7C907.455 197.7 897.355 202 889.155 210.6C881.155 219 877.155 231.1 877.155 246.9C877.155 262.7 881.055 274.9 888.855 283.5C896.855 291.9 906.855 296.1 918.855 296.1ZM1128.46 161.4C1148.26 161.4 1164.26 167.7 1176.46 180.3C1188.66 192.7 1194.76 210.1 1194.76 232.5V330H1152.76V238.2C1152.76 225 1149.46 214.9 1142.86 207.9C1136.26 200.7 1127.26 197.1 1115.86 197.1C1104.26 197.1 1095.06 200.7 1088.26 207.9C1081.66 214.9 1078.36 225 1078.36 238.2V330H1036.36V163.8H1078.36V184.5C1083.96 177.3 1091.06 171.7 1099.66 167.7C1108.46 163.5 1118.06 161.4 1128.46 161.4ZM1308.5 332.7C1292.5 332.7 1278.1 329.2 1265.3 322.2C1252.5 315 1242.4 304.9 1235 291.9C1227.8 278.9 1224.2 263.9 1224.2 246.9C1224.2 229.9 1227.9 214.9 1235.3 201.9C1242.9 188.9 1253.2 178.9 1266.2 171.9C1279.2 164.7 1293.7 161.1 1309.7 161.1C1325.7 161.1 1340.2 164.7 1353.2 171.9C1366.2 178.9 1376.4 188.9 1383.8 201.9C1391.4 214.9 1395.2 229.9 1395.2 246.9C1395.2 263.9 1391.3 278.9 1383.5 291.9C1375.9 304.9 1365.5 315 1352.3 322.2C1339.3 329.2 1324.7 332.7 1308.5 332.7ZM1308.5 296.1C1316.1 296.1 1323.2 294.3 1329.8 290.7C1336.6 286.9 1342 281.3 1346 273.9C1350 266.5 1352 257.5 1352 246.9C1352 231.1 1347.8 219 1339.4 210.6C1331.2 202 1321.1 197.7 1309.1 197.7C1297.1 197.7 1287 202 1278.8 210.6C1270.8 219 1266.8 231.1 1266.8 246.9C1266.8 262.7 1270.7 274.9 1278.5 283.5C1286.5 291.9 1296.5 296.1 1308.5 296.1ZM1447.31 144C1439.91 144 1433.71 141.7 1428.71 137.1C1423.91 132.3 1421.51 126.4 1421.51 119.4C1421.51 112.4 1423.91 106.6 1428.71 102C1433.71 97.2 1439.91 94.8 1447.31 94.8C1454.71 94.8 1460.81 97.2 1465.61 102C1470.61 106.6 1473.11 112.4 1473.11 119.4C1473.11 126.4 1470.61 132.3 1465.61 137.1C1460.81 141.7 1454.71 144 1447.31 144ZM1468.01 163.8V330H1426.01V163.8H1468.01ZM1498.71 246.3C1498.71 229.5 1502.01 214.6 1508.61 201.6C1515.41 188.6 1524.61 178.6 1536.21 171.6C1547.81 164.6 1560.71 161.1 1574.91 161.1C1585.71 161.1 1596.01 163.5 1605.81 168.3C1615.61 172.9 1623.41 179.1 1629.21 186.9V108H1671.81V330H1629.21V305.4C1624.01 313.6 1616.71 320.2 1607.31 325.2C1597.91 330.2 1587.01 332.7 1574.61 332.7C1560.61 332.7 1547.81 329.1 1536.21 321.9C1524.61 314.7 1515.41 304.6 1508.61 291.6C1502.01 278.4 1498.71 263.3 1498.71 246.3ZM1629.51 246.9C1629.51 236.7 1627.51 228 1623.51 220.8C1619.51 213.4 1614.11 207.8 1607.31 204C1600.51 200 1593.21 198 1585.41 198C1577.61 198 1570.41 199.9 1563.81 203.7C1557.21 207.5 1551.81 213.1 1547.61 220.5C1543.61 227.7 1541.61 236.3 1541.61 246.3C1541.61 256.3 1543.61 265.1 1547.61 272.7C1551.81 280.1 1557.21 285.8 1563.81 289.8C1570.61 293.8 1577.81 295.8 1585.41 295.8C1593.21 295.8 1600.51 293.9 1607.31 290.1C1614.11 286.1 1619.51 280.5 1623.51 273.3C1627.51 265.9 1629.51 257.1 1629.51 246.9Z" fill="#000B34"/>
</svg>
